<svg width="1019" height="814" viewBox="0 0 1019 814" fill="none" xmlns="http://www.w3.org/2000/svg">
<g clip-path="url(#clip0)">
<path d="M1125.99 618.987C1125.99 618.987 1071.93 637.587 1066.84 639.286C1061.78 640.985 1002.63 654.487 994.181 660.166C985.73 665.844 908.603 700.451 908.603 700.451L826.065 757.011L686.029 752.316C686.029 752.316 679.903 733.895 674.762 728.798C669.62 723.701 652.54 700.406 652.54 700.406V640.94L624.327 618.942C624.327 618.942 603.625 606.914 597.008 602.622C590.391 598.33 571.165 600.208 571.165 600.208L485.721 602.309L436.315 607.317L380.828 625.738H303.03L211.774 653.638L123.513 679.124V837H1139.36V622.563L1125.99 618.987Z" fill="#896B6B"/>
<path d="M1125.99 618.987C1125.99 618.987 1071.93 637.587 1066.84 639.286C1061.78 640.985 1002.63 654.488 994.181 660.166C985.73 665.844 908.603 700.451 908.603 700.451L866.842 729.066C881.195 727.591 895.547 726.115 909.9 724.685C913.611 724.327 917.411 723.88 920.764 722.27C928.589 718.425 932.076 708.857 939.499 704.251C942.405 706.442 946.339 706.308 949.961 706.04C975.178 704.251 1000.35 702.463 1025.57 700.675C1028.79 700.451 1032.1 700.227 1035.14 699.11C1043.68 696.025 1049.22 686.68 1058.16 685.07C1059.37 678.945 1060.53 672.819 1061.74 666.649C1059.33 663.653 1057.4 657.93 1057.58 654.085C1066.08 657.662 1074.13 662.312 1081.5 667.901C1086.15 668.214 1089.82 663.698 1093.53 660.926C1095.9 659.138 1098.94 658.601 1101.85 658.154C1114.28 656.142 1126.8 654.622 1139.36 653.504V622.563L1125.99 618.987Z" fill="#997777"/>
<path d="M349.798 645.5C354.314 644.964 358.74 643.936 363.256 643.354C399.562 638.66 435.778 663.296 471.458 655.203C477.807 653.772 483.888 651.358 490.237 650.106C514.113 645.501 538.704 658.154 562.759 654.219C572.372 652.654 581.225 648.496 589.944 644.07C584.623 642.505 579.347 640.806 574.026 639.375C537.855 629.538 499.626 631.282 462.382 634.993C444.229 636.782 425.808 639.017 407.878 635.753C398.623 634.054 389.457 630.656 381.588 625.514L436.27 607.362L380.783 625.783H303.03L299.274 626.945C312.151 640.269 331.287 647.647 349.798 645.5Z" fill="#6D5454"/>
<path d="M603.402 723.254C599.288 725.758 595.89 729.2 592.403 732.509C571.388 752.808 548.228 770.693 525.067 788.533C556.947 782.541 588.468 774.896 619.543 765.551C627.859 763.047 636.131 760.454 644.626 758.755C652.406 757.235 660.32 756.475 668.234 755.759C678.786 754.775 689.293 753.792 699.845 752.808L686.029 752.361C686.029 752.361 679.903 733.94 674.762 728.843C669.62 723.746 652.54 700.451 652.54 700.451V699.154C640.512 706.711 627.77 713.149 614.535 718.291C610.735 719.766 606.889 721.152 603.402 723.254Z" fill="#775D5D"/>
<path d="M241.328 692.403C261.94 690.927 282.641 683.952 302.851 688.334C324.983 693.163 345.148 711.405 367.236 706.487C384.092 702.731 403.899 697.947 421.113 696.427C438.327 694.862 457.687 698.975 467.792 713.015C477.673 726.786 477.047 743.598 482.412 759.649C483.53 763.047 484.693 766.535 487.018 769.262C489.432 772.168 492.83 774.001 496.184 775.7C512.772 784.151 530.075 791.171 547.825 796.715C562.714 801.365 578.14 794.256 591.285 785.895C603.044 778.383 614.49 769.53 627.68 765.417C614.088 764.523 600.585 765.685 587.619 770.201C578.095 773.51 569.063 778.562 559.048 779.903C543.31 782.005 528.063 774.538 513.934 767.295C509.821 765.193 505.662 763.047 502.533 759.694C499.582 756.564 497.704 752.54 496.049 748.561C486.571 726.428 477.941 700.138 455.541 691.419C447.85 688.424 439.4 688.021 431.128 688.513C400.724 690.301 369.739 703.76 340.811 694.236C327.979 690.033 316.89 681.583 304.103 677.112C278.573 668.169 250.673 676.262 223.667 677.782C202.205 678.945 180.565 675.77 160.311 668.616L123.513 679.124L139.564 674.518C173.411 681.806 206.855 694.862 241.328 692.403Z" fill="#997777"/>
<path d="M712.856 778.562C718.266 780.261 723.765 781.915 729.399 782.497C735.614 783.123 741.918 782.407 748.133 781.737C791.548 777.087 835.321 776.013 878.914 778.473C869.838 769.038 856.603 765.104 845.828 757.726C842.474 755.401 839.345 752.763 836.528 749.812L826.021 757.011L685.984 752.316C685.984 752.316 685.939 752.227 685.895 752.048C678.562 755.849 671.229 759.604 663.896 763.405C680.261 768.457 696.536 773.51 712.856 778.562Z" fill="#775D5D"/>
<path d="M462.337 634.993C499.626 631.327 537.855 629.583 573.982 639.375C584.578 642.237 594.951 646.126 605.771 647.87C621.242 650.374 636.846 648.451 652.45 645.948V640.985L624.237 618.987C624.237 618.987 603.536 606.959 596.919 602.667C590.301 598.375 571.075 600.252 571.075 600.252L485.632 602.354L436.225 607.362L381.588 625.514C389.457 630.656 398.623 634.054 407.878 635.753C425.807 639.017 444.229 636.782 462.337 634.993Z" fill="#775D5D"/>
<path d="M1084.68 757.458C1075.51 770.469 1065.14 784.643 1049.62 788.086C1038.62 790.5 1027.13 786.923 1015.96 788.041C991.945 790.411 972.451 813.661 948.441 811.47C940.08 810.71 932.345 806.864 924.297 804.361C909.05 799.532 892.775 799.487 876.768 799.442C861.611 799.442 846.409 799.398 831.252 799.398C825.126 799.398 818.777 799.442 813.233 801.946C807.421 804.584 802.994 809.726 797.092 812.14C791.637 814.376 785.512 814.018 779.61 813.482C764.006 812.096 748.491 810.933 733.199 807.535C715.494 803.556 697.833 799.621 680.127 795.642C676.997 794.926 673.778 794.211 671.185 792.333C666.803 789.114 665.193 783.436 662.466 778.741C656.653 768.725 643.687 761.706 632.33 764.165C617.084 767.474 604.386 777.534 591.24 785.895C578.095 794.256 562.67 801.365 547.781 796.715C530.03 791.171 512.727 784.151 496.139 775.7C492.786 774.001 489.387 772.168 486.973 769.262C484.693 766.49 483.53 763.047 482.368 759.649C477.002 743.553 477.628 726.786 467.747 713.015C457.687 698.975 438.282 694.862 421.068 696.427C403.854 697.992 384.047 702.776 367.191 706.487C345.059 711.405 324.894 693.163 302.806 688.334C282.641 683.908 261.895 690.927 241.283 692.403C206.811 694.862 173.411 681.806 139.52 674.474L123.513 679.124V837H1139.36V707.918C1131.13 710.69 1123.4 715.206 1116.6 720.616C1103.9 730.81 1094.07 744.134 1084.68 757.458Z" fill="#775D5D"/>
<path d="M350.29 714.133C350.692 711.539 350.737 708.946 350.513 706.308C334.596 702.91 319.26 691.911 302.761 688.334C282.597 683.908 261.85 690.927 241.238 692.403C206.766 694.862 173.366 681.806 139.475 674.474L123.513 679.124V837H283.178C299.542 802.036 318.5 768.278 339.783 736.086C344.299 729.29 349.038 722.225 350.29 714.133Z" fill="#6D5454"/>
<path d="M1053.33 791.26C1043.77 789.829 1033.97 790.232 1024.36 789.069C1021.9 788.756 1019.4 788.399 1016.89 787.951C1016.58 787.996 1016.22 787.996 1015.91 788.041C991.901 790.411 972.406 813.661 948.396 811.47C946.787 811.336 945.222 811.067 943.657 810.71C942.763 815.807 942.718 821.083 943.523 826.135C944.104 829.846 945.132 833.468 946.384 837H1139.36V824.257C1129.61 822.335 1119.95 818.713 1110.97 814.51C1092.14 805.702 1073.9 794.345 1053.33 791.26Z" fill="#6D5454"/>
<path d="M601.747 778.964C598.215 781.289 594.728 783.659 591.24 785.895C578.095 794.3 562.669 801.365 547.781 796.715C530.254 791.26 513.219 784.33 496.809 776.058C491.533 777.444 486.347 779.233 481.294 781.468C454.915 793.138 435.42 815.986 412.439 833.423C410.829 834.63 409.219 835.793 407.61 836.955H541.431C559.629 815.807 579.883 796.312 601.747 778.964Z" fill="#6D5454"/>
<path d="M797.047 812.14C791.593 814.376 785.467 814.018 779.565 813.482C763.961 812.096 748.446 810.933 733.155 807.535C732.439 807.356 731.769 807.222 731.053 807.043C722.692 809.86 714.421 812.766 705.657 813.616C689.874 815.136 673.599 809.681 658.263 813.705C649.142 816.12 641.272 821.709 633.224 826.627C627.009 830.427 620.571 833.87 613.954 837H841.133C827.675 827.432 813.904 817.819 799.551 810.888C798.747 811.336 797.897 811.783 797.047 812.14Z" fill="#6D5454"/>
<path d="M576.843 729.782C578.05 713.999 579.213 698.26 580.42 682.477C580.822 676.843 581.314 671.076 583.595 665.889C588.826 654.04 595.041 644.83 584.042 633.652C573.087 622.563 571.701 628.823 573.669 639.733C578.766 668.616 576.128 700.406 576.843 729.782Z" fill="#6D5454"/>
<path d="M661.885 257.181C656.162 258.656 585.92 257.673 585.92 257.673L522.832 245.824C522.832 245.824 516.975 261.786 517.779 272.785L566.47 281.906L654.641 292.011L661.885 257.181Z" fill="#4B8B99"/>
<path d="M580.286 256.6L522.832 245.779C522.832 245.779 516.975 261.741 517.779 272.74L566.47 281.862L579.615 283.382C584.668 271.712 582.03 262.278 580.286 256.6Z" fill="#427F89"/>
<path d="M651.556 152.422C651.646 152.466 651.78 152.466 651.87 152.511C651.915 152.511 651.915 152.511 651.96 152.466L651.556 152.422Z" fill="#1F3335"/>
<path d="M651.556 152.422C650.662 152.153 649.723 151.974 648.784 151.93L651.556 152.422Z" fill="#1F3335"/>
<path d="M677.444 243.231C637.293 239.028 619.722 266.66 613.551 278.419C611.942 281.459 612.478 285.125 614.803 287.629L617.039 289.999C619.453 292.548 623.254 293.218 626.384 291.653C635.818 286.959 655.804 277.882 667.474 279.089C675.074 279.849 676.416 287.316 675.79 294.738C675.253 301.4 681.915 306.274 688.041 303.591L695.284 300.417C697.207 299.567 698.727 298.092 699.666 296.259C704.987 285.349 720.144 247.702 677.444 243.231Z" fill="#5EA4B7"/>
<path d="M684.374 278.911C673.465 257.404 639.797 276.228 628.798 282.666C622.047 286.601 616.726 282.309 613.596 278.374C613.596 278.374 613.596 278.374 613.596 278.419C611.986 281.459 612.523 285.125 614.848 287.629L617.084 289.999C619.498 292.548 623.299 293.218 626.428 291.653C635.862 286.959 655.848 277.882 667.518 279.089C675.119 279.849 676.461 287.316 675.835 294.738C675.298 301.4 681.96 306.274 688.086 303.591L689.114 303.144C689.606 296.124 688.801 287.629 684.374 278.911Z" fill="#75BFD8"/>
<path d="M627.546 275.468C629.892 275.468 631.794 273.566 631.794 271.22C631.794 268.874 629.892 266.973 627.546 266.973C625.2 266.973 623.298 268.874 623.298 271.22C623.298 273.566 625.2 275.468 627.546 275.468Z" fill="#75BFD8"/>
<path d="M659.381 237.195C658.129 238.312 648.963 267.733 648.963 267.733L688.041 257.717L700.515 215.599L659.381 237.195Z" fill="#478596"/>
<path d="M700.515 215.599L659.381 237.195C658.576 237.91 654.462 250.429 651.646 259.193C658.308 256.957 671.498 251.726 693.317 239.922L700.515 215.599Z" fill="#3D737F"/>
<path d="M672.615 153.942C671.229 152.69 669.799 151.483 668.234 150.588C661.438 151.885 655.446 155.686 649.41 159.039C643.374 162.437 636.712 165.522 629.782 165.075C632.062 165.79 634.387 166.237 636.757 166.327C631.838 167.624 627.636 171.245 625.624 175.895C628.887 173.615 632.643 172.005 636.578 171.245C632.733 175.269 631.66 181.305 632.286 186.849C632.509 188.683 632.867 190.516 633.493 192.215L620.437 199.861L637.025 204.063L639.574 248.417C639.574 248.417 709.815 240.414 719.384 198.34C728.728 158.055 689.382 149.873 672.615 153.942Z" fill="#1F3335"/>
<path opacity="0.53" d="M607.471 218.058C605.548 214.615 594.46 147.95 672.615 138.65C750.771 129.35 735.525 184.614 718.445 215.599C718.445 215.599 618.828 238.357 607.471 218.058Z" fill="#D9F3FF"/>
<path opacity="0.34" d="M651.333 143.211C643.955 145.581 615.295 150.231 615.295 223.736C617.754 224.631 620.66 225.257 623.924 225.704C621.376 207.238 619.14 162.839 651.333 143.211Z" fill="#EBFAFF"/>
<path d="M695.508 203.437L692.959 191.589C691.528 184.882 683.838 181.663 678.025 185.329C675.79 186.76 674.225 188.996 673.688 191.589L670.961 204.332C669.53 211.173 675.387 217.298 682.273 216.091L687.549 215.197C693.049 214.302 696.67 208.937 695.508 203.437Z" fill="#A3D3E8"/>
<path d="M675.79 204.376L678.517 191.634C679.054 189.04 680.619 186.805 682.854 185.374C683.749 184.793 684.732 184.39 685.716 184.122C683.212 183.496 680.485 183.809 678.025 185.374C675.79 186.805 674.225 189.04 673.688 191.634L670.961 204.376C669.53 211.217 675.387 217.343 682.273 216.136L683.078 216.001C678.115 214.794 674.627 209.787 675.79 204.376Z" fill="#D9F3FF"/>
<path d="M614.043 209.474C608.499 208.758 603.581 213.095 603.581 218.684V253.47C603.581 259.282 608.857 263.664 614.58 262.591C638.456 258.164 694.837 244.08 720.233 207.104C720.233 207.149 645.565 213.408 614.043 209.474Z" fill="#BFE9FF"/>
<path d="M720.367 207.104C720.367 207.104 705.523 208.356 686.297 209.384V233.305L686.476 237.239C699.666 229.415 711.783 219.578 720.367 207.104Z" fill="#A3D3E8"/>
<path d="M720.054 207.149C716.254 207.462 644.715 213.319 614.043 209.474C609.974 208.982 606.263 211.128 604.564 214.571C617.978 215.599 667.697 218.282 720.054 207.149Z" fill="#D9F3FF"/>
<path d="M651.78 219.444C649.902 219.534 648.024 219.623 646.191 219.668V248.417C648.069 247.881 649.946 247.299 651.78 246.718V219.444Z" fill="#75BFD8"/>
<path d="M638.545 219.802C636.623 219.802 634.745 219.802 632.956 219.757V251.905C634.834 251.502 636.712 251.011 638.545 250.563V219.802Z" fill="#75BFD8"/>
<path d="M625.311 219.489C623.298 219.399 621.421 219.265 619.722 219.176V254.23C621.555 254.006 623.433 253.738 625.311 253.425V219.489Z" fill="#75BFD8"/>
<path d="M612.121 218.595C609.17 218.326 607.471 218.103 607.471 218.103V254.453C608.946 254.632 610.466 254.722 612.121 254.722V218.595Z" fill="#75BFD8"/>
<path d="M664.97 218.237C663.092 218.461 661.214 218.684 659.381 218.863V244.214C661.348 243.544 663.226 242.873 664.97 242.247V218.237Z" fill="#75BFD8"/>
<path d="M672.615 217.119V239.43C677.31 237.597 680.216 236.39 680.216 236.39V215.51C677.712 216.136 675.164 216.672 672.615 217.119Z" fill="#75BFD8"/>
<path d="M635.102 150.454L683.078 180.053C685.09 181.305 686.297 183.451 686.297 185.821V219.444L720.054 211.396L735.614 184.972C735.614 184.972 744.064 106.1 638.321 144.329C635.818 145.223 634.432 147.906 635.102 150.454Z" fill="#BFE9FF"/>
<path d="M721.485 147.101C714.957 146.609 689.65 153.048 689.65 153.048C689.65 153.048 699.442 165.522 704.048 165.522C708.385 165.522 730.204 165.164 732.082 160.291C731.098 157.742 729.846 155.194 728.281 152.735C725.241 149.515 721.485 147.101 721.485 147.101Z" fill="#A4D5EA"/>
<path d="M689.203 180.679C689.203 180.679 717.416 178.533 734.898 170.753C734.809 170.172 734.675 169.546 734.541 168.92C719.741 176.521 690.187 178.936 690.187 178.936L638.322 144.284C637.293 144.642 636.488 145.312 635.862 146.162C635.952 146.028 636.086 145.849 636.22 145.715L689.203 180.679Z" fill="#D9F3FF"/>
<path d="M689.203 180.679L636.265 145.715C635.147 146.967 634.655 148.755 635.102 150.499L683.078 180.098C685.09 181.35 686.297 183.496 686.297 185.866V219.489L720.054 211.441L735.614 185.016C735.614 185.016 736.285 178.846 734.898 170.798C717.461 178.578 689.203 180.679 689.203 180.679Z" fill="#75BFD8"/>
<path d="M707.089 196.598C696.582 196.598 688.042 205.138 688.042 215.645C688.042 226.152 696.582 234.692 707.089 234.692C717.596 234.692 726.136 226.152 726.136 215.645C726.092 205.093 717.596 196.598 707.089 196.598ZM707.089 226.957C700.829 226.957 695.732 221.86 695.732 215.6C695.732 209.341 700.829 204.243 707.089 204.243C713.349 204.243 718.446 209.341 718.446 215.6C718.446 221.904 713.349 226.957 707.089 226.957Z" fill="#D9F3FF"/>
<path d="M695.687 215.599C695.687 209.339 700.784 204.242 707.043 204.242C707.625 204.242 708.206 204.287 708.787 204.376V196.641C708.206 196.597 707.625 196.552 707.043 196.552C696.536 196.552 687.996 205.092 687.996 215.599C687.996 215.823 687.996 216.046 687.996 216.27H695.642C695.731 216.046 695.687 215.823 695.687 215.599Z" fill="#BDE6F4"/>
<path d="M707.088 226.956C713.36 226.956 718.445 221.871 718.445 215.599C718.445 209.327 713.36 204.242 707.088 204.242C700.816 204.242 695.731 209.327 695.731 215.599C695.731 221.871 700.816 226.956 707.088 226.956Z" fill="#75BFD8"/>
<path d="M707.088 222.127C710.693 222.127 713.616 219.204 713.616 215.599C713.616 211.994 710.693 209.071 707.088 209.071C703.483 209.071 700.56 211.994 700.56 215.599C700.56 219.204 703.483 222.127 707.088 222.127Z" fill="#478596"/>
<path d="M728.683 152.735L724.972 146.162C725.151 145.67 716.343 136.728 702.751 133.285C692.467 130.692 681.87 134.179 677.355 136.057C676.282 136.504 676.013 137.935 676.863 138.74C680.171 141.914 687.325 149.024 690.679 154.657C691.215 155.596 692.288 156.043 693.361 155.82L697.072 154.97C700.336 154.21 720.457 154.612 727.476 154.791C728.505 154.791 729.175 153.674 728.683 152.735Z" fill="#75BFD8"/>
<path d="M728.683 152.735L725.017 146.207C716.433 145.402 703.869 146.341 697.52 147.056C697.654 148.219 695.597 152.287 693.764 155.686L697.072 154.925C700.336 154.165 720.457 154.568 727.476 154.747C728.505 154.791 729.175 153.674 728.683 152.735Z" fill="#85D7ED"/>
<path d="M697.475 146.967C697.028 145.223 687.862 134.895 684.24 134.895C681.915 134.895 678.562 136.057 676.416 136.996C676.237 137.577 676.326 138.248 676.818 138.695C680.127 141.87 687.281 148.979 690.634 154.612C691.171 155.551 692.244 155.999 693.317 155.775L693.719 155.686C695.642 152.198 697.743 147.95 697.475 146.967Z" fill="#68AABC"/>
<path d="M697.475 146.967C697.028 145.357 689.069 136.281 685.09 135.074C682.631 135.878 679.635 137.309 677.846 139.679C681.423 143.166 687.638 149.515 690.679 154.657C691.215 155.596 692.288 156.043 693.361 155.82L693.764 155.73C695.642 152.198 697.743 147.95 697.475 146.967Z" fill="#5A9AA8"/>
<path d="M697.475 146.967C697.117 145.581 691.126 138.65 686.923 135.968C685.626 137.22 683.525 139.858 682.362 144.239C685.403 147.459 688.667 151.304 690.634 154.612C691.171 155.551 692.244 155.999 693.317 155.775L693.719 155.686C695.642 152.198 697.743 147.95 697.475 146.967Z" fill="#538F99"/>
<path d="M703.556 189.533C704.692 189.533 705.612 188.612 705.612 187.476C705.612 186.34 704.692 185.419 703.556 185.419C702.42 185.419 701.499 186.34 701.499 187.476C701.499 188.612 702.42 189.533 703.556 189.533Z" fill="#478596"/>
<path d="M713.616 189.532C714.752 189.532 715.673 188.611 715.673 187.475C715.673 186.34 714.752 185.419 713.616 185.419C712.48 185.419 711.559 186.34 711.559 187.475C711.559 188.611 712.48 189.532 713.616 189.532Z" fill="#478596"/>
<path d="M723.676 189.532C724.812 189.532 725.733 188.611 725.733 187.475C725.733 186.34 724.812 185.419 723.676 185.419C722.54 185.419 721.619 186.34 721.619 187.475C721.619 188.611 722.54 189.532 723.676 189.532Z" fill="#478596"/>
<path d="M698.771 194.898C699.907 194.898 700.828 193.977 700.828 192.841C700.828 191.705 699.907 190.784 698.771 190.784C697.636 190.784 696.715 191.705 696.715 192.841C696.715 193.977 697.636 194.898 698.771 194.898Z" fill="#478596"/>
<path d="M708.831 194.898C709.967 194.898 710.888 193.977 710.888 192.841C710.888 191.705 709.967 190.784 708.831 190.784C707.696 190.784 706.775 191.705 706.775 192.841C706.775 193.977 707.696 194.898 708.831 194.898Z" fill="#478596"/>
<path d="M718.892 194.898C720.028 194.898 720.948 193.977 720.948 192.841C720.948 191.705 720.028 190.784 718.892 190.784C717.756 190.784 716.835 191.705 716.835 192.841C716.835 193.977 717.756 194.898 718.892 194.898Z" fill="#478596"/>
<path d="M634.923 425.386L709.323 588.314L758.104 719.9H800.982L758.104 594.037L739.235 585.855L683.748 417.963L634.923 425.386Z" fill="#326166"/>
<path d="M712.499 618.987C714.243 618.987 783.054 626.185 783.054 626.185L826.066 757.413H683.75C683.75 757.413 693.273 725.624 754.886 727.01L712.499 618.987Z" fill="#BFE9FF"/>
<path d="M826.021 757.459L783.008 626.231C783.008 626.231 714.197 619.032 712.453 619.032L720.01 638.303L776.57 642.103L819.403 753.122L685.984 752.765C684.24 755.581 683.704 757.459 683.704 757.459H826.021Z" fill="#7BAABA"/>
<path d="M770.4 666.694C774.005 666.694 776.927 663.771 776.927 660.166C776.927 656.561 774.005 653.638 770.4 653.638C766.794 653.638 763.872 656.561 763.872 660.166C763.872 663.771 766.794 666.694 770.4 666.694Z" fill="#5EA4B7"/>
<path d="M776.614 683.595C780.22 683.595 783.142 680.672 783.142 677.067C783.142 673.462 780.22 670.539 776.614 670.539C773.009 670.539 770.087 673.462 770.087 677.067C770.087 680.672 773.009 683.595 776.614 683.595Z" fill="#5EA4B7"/>
<path d="M782.65 700.451C786.256 700.451 789.178 697.528 789.178 693.923C789.178 690.318 786.256 687.395 782.65 687.395C779.045 687.395 776.122 690.318 776.122 693.923C776.122 697.528 779.045 700.451 782.65 700.451Z" fill="#5EA4B7"/>
<path d="M631.794 416.935C622.673 414.968 488.27 394.713 488.27 394.713L509.24 485.746L555.382 488.965L536.961 437.011L729.489 470.544C729.399 470.544 687.057 428.918 631.794 416.935Z" fill="#3D737F"/>
<path d="M631.794 416.935C629.334 416.399 617.888 414.565 602.463 412.151C611.36 425.699 621.107 438.799 629.066 452.928C629.111 452.973 629.111 453.017 629.156 453.107L729.399 470.589C729.399 470.544 687.057 428.918 631.794 416.935Z" fill="#386C75"/>
<path d="M536.916 437.011L521.803 430.036L536.737 487.669L555.337 488.921L536.916 437.011Z" fill="#386C75"/>
<path d="M490.013 468.935C491.757 468.935 560.568 476.133 560.568 476.133L603.581 607.362H461.264C461.264 607.362 470.787 575.572 532.4 576.958L490.013 468.935Z" fill="#BFE9FF"/>
<path d="M541.342 521.962C544.947 521.962 547.87 519.04 547.87 515.435C547.87 511.829 544.947 508.907 541.342 508.907C537.737 508.907 534.814 511.829 534.814 515.435C534.814 519.04 537.737 521.962 541.342 521.962Z" fill="#5EA4B7"/>
<path d="M550.151 537.656C553.756 537.656 556.678 534.734 556.678 531.128C556.678 527.523 553.756 524.6 550.151 524.6C546.545 524.6 543.623 527.523 543.623 531.128C543.623 534.734 546.545 537.656 550.151 537.656Z" fill="#5EA4B7"/>
<path d="M558.869 553.35C562.474 553.35 565.397 550.427 565.397 546.822C565.397 543.217 562.474 540.294 558.869 540.294C555.264 540.294 552.341 543.217 552.341 546.822C552.341 550.427 555.264 553.35 558.869 553.35Z" fill="#5EA4B7"/>
<path d="M603.581 606.959L560.568 475.731C560.568 475.731 491.757 468.532 490.013 468.532L497.57 487.803L555.337 494.733L596.963 602.622L463.544 602.264C461.8 605.081 461.264 606.959 461.264 606.959H603.581Z" fill="#A3D3E8"/>
<path d="M768.7 445.238L702.348 379.556L703.734 370.346C699.353 371.955 622.538 407.859 622.538 407.859V415.907L724.659 493.884C737.268 503.541 755.063 502.781 766.688 491.961C766.912 491.782 767.091 491.559 767.314 491.38C780.325 478.995 780.951 458.383 768.7 445.238Z" fill="#5EA4B7"/>
<path d="M770.712 487.624C771.07 487.177 771.383 486.73 771.696 486.283C761.055 487.132 744.824 488.161 734.63 485.612C723.542 482.795 665.461 426.593 638.769 400.302C636.801 401.197 634.968 402.091 633.269 402.851C658.486 425.654 728.46 488.608 734.63 490.664C740.443 492.542 755.376 493.839 770.712 487.624Z" fill="#A3D3E8"/>
<path d="M734.63 490.62C728.46 488.563 658.487 425.609 633.269 402.806C626.741 405.847 622.538 407.814 622.538 407.814V415.862L724.66 493.839C737.268 503.497 755.063 502.737 766.688 491.916C766.912 491.737 767.091 491.514 767.314 491.335C768.566 490.128 769.684 488.876 770.712 487.579C755.376 493.839 740.443 492.542 734.63 490.62Z" fill="#3D737F"/>
<path d="M634.923 311.997L625.31 327.691L628.083 386.978L688.041 360.643L700.783 356.127L702.304 322.549L727.163 288.881C727.208 288.881 650.438 288.568 634.923 311.997Z" fill="#3D737F"/>
<path d="M712.185 309.896C702.304 310.835 662.242 319.375 626.428 351.03L627.099 365.383C637.338 353.981 668.591 325.902 702.348 322.549L706.417 317.005L712.185 309.896Z" fill="#4B8B99"/>
<path d="M628.083 386.978L688.041 360.643L700.783 356.127L702.304 330.776C671.497 339.897 636.131 368.736 627.546 376.292L628.083 386.978Z" fill="#386C75"/>
<path d="M705.613 351.299C704.45 351.299 625.355 386.978 625.355 386.978L622.538 407.859L718.445 367.216L705.613 351.299Z" fill="#A3D3E8"/>
<path d="M705.612 351.299C704.45 351.299 625.355 386.978 625.355 386.978L624.327 394.713C641.496 386.978 693.183 363.639 693.183 363.639L692.109 378.394L718.489 367.216L705.612 351.299Z" fill="#5EA4B7"/>
<path d="M702.349 263.083C693.183 252.799 679.01 261.16 679.01 261.16L646.191 272.83L643.643 277.346L615.43 291.206C613.507 292.145 612.077 293.844 611.495 295.901L606.711 312.534C605.638 316.245 607.516 320.135 611.048 321.655L642.302 334.845C642.302 334.845 660.767 300.327 703.601 302.563C703.556 302.563 711.515 273.366 702.349 263.083Z" fill="#A3D3E8"/>
<path d="M619.274 293.755L648.963 279.134L703.734 264.961C703.332 264.29 702.885 263.664 702.348 263.083C693.183 252.799 679.009 261.16 679.009 261.16L646.191 272.83L643.642 277.346L615.429 291.206C613.507 292.145 612.076 293.844 611.495 295.901L611.316 296.572C618.961 299.388 630.095 303.502 633.761 305.022C629.96 302.608 619.274 293.755 619.274 293.755Z" fill="#BFE9FF"/>
<path d="M702.348 263.084C700.202 260.669 697.743 259.283 695.284 258.568C691.931 271.355 686.297 291.476 686.297 291.476C663.092 293.085 634.968 314.457 634.968 314.457H606.397C606.308 317.542 608.096 320.404 611.047 321.656L642.301 334.846C642.301 334.846 660.767 300.329 703.6 302.564C703.556 302.564 711.514 273.367 702.348 263.084Z" fill="#75BFD8"/>
<path d="M702.349 263.083C699.129 262.68 697.743 259.282 695.284 258.567C691.931 271.354 686.297 291.475 686.297 291.475C663.092 293.084 634.968 314.456 634.968 314.456L642.301 334.845C642.301 334.845 668.994 301.132 711.828 303.412C711.783 303.368 738.565 267.733 702.349 263.083Z" fill="#5EA4B7"/>
<path d="M645.073 322.013C646.258 322.013 647.219 319.77 647.219 317.005C647.219 314.239 646.258 311.997 645.073 311.997C643.888 311.997 642.927 314.239 642.927 317.005C642.927 319.77 643.888 322.013 645.073 322.013Z" fill="#4B8B99"/>
<path d="M652.495 316.289C653.68 316.289 654.641 314.047 654.641 311.282C654.641 308.516 653.68 306.274 652.495 306.274C651.309 306.274 650.349 308.516 650.349 311.282C650.349 314.047 651.309 316.289 652.495 316.289Z" fill="#4B8B99"/>
<path d="M659.649 311.282C660.834 311.282 661.795 309.04 661.795 306.274C661.795 303.508 660.834 301.266 659.649 301.266C658.464 301.266 657.503 303.508 657.503 306.274C657.503 309.04 658.464 311.282 659.649 311.282Z" fill="#4B8B99"/>
<path d="M695.686 251.905L646.146 265.363L643.597 277.301L688.041 265.363L698.458 261.16L695.686 251.905Z" fill="#75BFD8"/>
<path d="M728.862 237.418C688.711 233.215 671.14 260.847 664.97 272.606C663.36 275.647 663.896 279.313 666.221 281.817L668.457 284.187C670.871 286.735 674.672 287.406 677.802 285.841C687.236 281.146 707.222 272.07 718.892 273.277C726.493 274.037 727.834 281.504 727.208 288.926C726.671 295.588 733.333 300.462 739.459 297.779L746.702 294.604C748.625 293.755 750.145 292.279 751.084 290.446C756.405 279.537 771.562 241.889 728.862 237.418Z" fill="#BFE9FF"/>
<path d="M735.793 273.098C724.883 251.592 691.215 270.415 680.216 276.854C673.465 280.788 668.144 276.496 665.014 272.562C665.014 272.562 665.014 272.562 665.014 272.606C663.405 275.647 663.941 279.313 666.266 281.817L668.502 284.187C670.916 286.735 674.717 287.406 677.847 285.841C687.281 281.146 707.267 272.07 718.936 273.277C726.537 274.037 727.879 281.504 727.253 288.926C726.716 295.588 733.378 300.462 739.504 297.779L740.532 297.332C741.024 290.267 740.219 281.817 735.793 273.098Z" fill="#75BFD8"/>
<path d="M678.964 269.611C681.31 269.611 683.212 267.709 683.212 265.363C683.212 263.017 681.31 261.115 678.964 261.115C676.618 261.115 674.717 263.017 674.717 265.363C674.717 267.709 676.618 269.611 678.964 269.611Z" fill="#D9F3FF"/>
<path d="M910.436 156.267C910.436 156.267 950.9 192.841 969.5 222.887L923.447 239.43L912.358 282.13L847.661 222.172C847.661 222.172 895.457 161.319 909.631 159.486" fill="#D17454"/>
<path d="M887.544 221.412C899.619 221.412 909.408 211.623 909.408 199.548C909.408 187.472 899.619 177.684 887.544 177.684C875.469 177.684 865.68 187.472 865.68 199.548C865.68 211.623 875.469 221.412 887.544 221.412Z" fill="#E58863"/>
<path d="M850.835 218.237C848.823 220.696 847.705 222.172 847.705 222.172L912.358 282.13L914.147 275.244C895.77 255.392 861.432 226.866 850.835 218.237Z" fill="#CE623C"/>
<path d="M910.436 156.267L909.676 159.441C908.379 159.62 906.769 160.291 904.936 161.364C922.955 177.371 950.363 203.348 964.313 224.72L969.544 222.842C950.9 192.841 910.436 156.267 910.436 156.267Z" fill="#CE623C"/>
<path d="M880.569 211.396C880.569 211.396 849.584 226.374 847.706 222.172C845.783 217.969 897.246 147.101 897.246 147.101L939.633 136.012L880.569 211.396Z" fill="#AD523A"/>
<path d="M847.616 221.814C847.616 221.948 847.616 222.082 847.661 222.127C849.583 226.33 880.524 211.351 880.524 211.351L887.499 202.409L885.442 201.425C885.487 201.47 868.139 217.209 847.616 221.814Z" fill="#CE623C"/>
<path d="M848.421 68.6769C848.421 68.6769 925.325 116.429 939.632 135.968C939.632 135.968 907.217 188.101 880.568 211.351C880.568 211.351 825.752 151.885 800.982 147.056L848.421 68.6769Z" fill="#E58863"/>
<path d="M848.421 68.6769L800.982 147.056C805.811 147.995 811.757 151.036 818.241 155.283C829.284 131.944 851.372 93.2683 860.985 76.6803C853.384 71.762 848.421 68.6769 848.421 68.6769Z" fill="#D17454"/>
<path d="M934.893 143.39C937.889 138.785 939.633 136.012 939.633 136.012C925.325 116.474 848.421 68.7216 848.421 68.7216L845.112 74.2211C862.595 84.1024 899.884 107.442 934.893 143.39Z" fill="#CE623C"/>
<path d="M805.721 139.232L800.982 147.101C825.752 151.975 880.568 211.396 880.568 211.396C882.446 209.787 884.324 207.998 886.247 206.12C856.558 175.001 825.35 152.198 805.721 139.232Z" fill="#CE623C"/>
<path d="M418.61 749.008C417.76 749.008 416.866 748.784 416.106 748.292C413.96 746.906 413.334 744.045 414.72 741.854L854.368 59.5111C855.754 57.3649 858.616 56.739 860.807 58.125C862.953 59.5111 863.579 62.3726 862.193 64.5635L422.5 746.906C421.605 748.292 420.13 749.008 418.61 749.008Z" fill="#C49874"/>
<path d="M902.209 147.816C886.291 147.816 873.415 160.693 873.415 176.611C873.415 188.012 880.077 197.893 889.69 202.543C902.254 189.398 915.13 172.184 924.654 158.502C919.333 152.019 911.285 147.816 902.209 147.816Z" fill="#FFA285"/>
<path d="M904.758 128.635L896.352 130.96L893.535 139.232L888.706 131.944L879.987 131.81L885.397 124.969L882.849 116.608L891.031 119.693L898.185 114.685L897.782 123.359L904.758 128.635Z" fill="#FFA285"/>
<path d="M862.907 121.794L854.502 124.119L851.64 132.346L846.856 125.103L838.137 124.969L843.547 118.128L840.999 109.767L849.181 112.807L856.29 107.8L855.932 116.518L862.907 121.794Z" fill="#FFA285"/>
<path d="M946.116 216.583L939.319 218.461L936.994 225.123L933.104 219.265L926.04 219.131L930.466 213.587L928.365 206.836L934.982 209.339L940.75 205.271L940.482 212.335L946.116 216.583Z" fill="#E58863"/>
<path d="M769.282 198.519C767.27 197.849 765.034 198.653 763.916 200.442L697.475 304.038C696.133 306.14 696.67 308.957 698.727 310.387C700.873 311.908 703.869 311.282 705.299 309.091L771.741 205.494C773.395 202.901 772.188 199.503 769.282 198.519Z" fill="#AA8161"/>
<path d="M608.052 452.257C608.007 452.257 608.007 452.213 607.962 452.213C605.816 450.782 602.91 451.408 601.524 453.554L414.63 741.854C413.244 744 413.869 746.906 416.016 748.292C416.776 748.784 417.67 749.008 418.519 749.008C420.04 749.008 421.56 748.248 422.454 746.862L609.348 458.562C610.779 456.46 610.153 453.643 608.052 452.257Z" fill="#AA8161"/>
<path d="M720.859 273.545C720.859 273.545 694.434 357.111 694.792 360.286C699.219 399.185 723.005 383.312 730.293 377.41C731.634 376.292 732.573 374.772 732.931 373.073L752.068 274.126L720.859 273.545Z" fill="#4B8B99"/>
<path d="M741.918 326.573L752.068 274.126L720.859 273.545C720.859 273.545 713.929 295.409 707.222 317.228C712.275 324.293 723.81 335.65 741.918 326.573Z" fill="#3D737F"/>
<path d="M703.69 308.599C703.69 308.599 721.306 326.35 751.263 314.993L755.108 247.3L727.387 245.556L703.69 308.599Z" fill="#A3D3E8"/>
<path d="M740.845 262.725C745.629 263.351 750.279 262.501 754.393 260.489L755.153 247.255L727.432 245.511L724.659 252.888C728.415 258.12 734.094 261.831 740.845 262.725Z" fill="#8DC1D3"/>
<path d="M750.413 246.942L744.511 246.584C740.89 263.038 732.216 302.339 728.057 318.614C731.903 318.927 736.195 318.749 740.89 317.899L750.413 246.942Z" fill="#BFE9FF"/>
<path d="M769.146 236.273C771.047 222.103 761.715 209.158 748.303 207.359C734.891 205.561 722.479 215.59 720.579 229.761C718.679 243.931 728.01 256.876 741.422 258.675C754.834 260.473 767.246 250.444 769.146 236.273Z" fill="#A3D3E8"/>
<path d="M765.353 230.332C766.209 223.944 762.003 218.109 755.958 217.298C749.913 216.488 744.319 221.009 743.462 227.396C742.605 233.784 746.812 239.619 752.857 240.43C758.902 241.241 764.496 236.719 765.353 230.332Z" fill="#BFE9FF"/>
<path d="M560.166 292.324C560.166 292.324 578.363 275.155 567.767 244.93L500.163 239.386L497.704 267.062L560.166 292.324Z" fill="#A3D3E8"/>
<path d="M545.858 280.297C546.35 275.825 541.745 272.651 537.721 270.684C525.201 264.603 512.146 259.64 498.732 255.929L497.749 267.062L542.46 285.17C544.249 284.008 545.59 282.398 545.858 280.297Z" fill="#8DC1D3"/>
<path d="M515.275 254.051C516.035 249.267 515.275 244.617 513.353 240.459L500.163 239.386L497.704 267.062L504.992 270.013C510.357 266.347 514.202 260.758 515.275 254.051Z" fill="#8DC1D3"/>
<path d="M499.761 244.08L499.224 249.982C515.588 254.006 554.666 263.709 570.852 268.225C571.254 264.379 571.21 260.087 570.449 255.392L499.761 244.08Z" fill="#BFE9FF"/>
<path d="M539.643 256.465L441.814 230.622L436.27 248.686L534.278 276.228C539.554 277.703 545.098 274.752 546.797 269.521C548.585 263.932 545.321 257.986 539.643 256.465Z" fill="#C49874"/>
<path d="M437.343 245.109L436.27 248.686L534.278 276.228C537.989 277.256 541.834 276.138 544.383 273.545L437.343 245.109Z" fill="#AA8163"/>
<path d="M520.998 251.547L466.271 237.105C466.137 237.195 466.048 237.284 465.914 237.374C463.589 239.207 461.443 241.353 460.191 244.036C458.581 247.523 458.805 251.592 459.878 255.348L516.304 271.22C517.064 269.745 517.6 268.18 518.137 266.615C519.657 261.697 520.596 256.644 520.998 251.547Z" fill="#AA8163"/>
<path d="M511.207 253.44C513.345 240.079 503.634 227.416 489.517 225.157C475.399 222.898 462.222 231.898 460.083 245.26C457.945 258.621 467.657 271.284 481.774 273.543C495.891 275.802 509.069 266.802 511.207 253.44Z" fill="#A3D3E8"/>
<path d="M493.275 241.525C494.239 235.502 489.861 229.795 483.497 228.776C477.133 227.758 471.193 231.815 470.23 237.837C469.266 243.859 473.644 249.567 480.007 250.585C486.371 251.604 492.311 247.547 493.275 241.525Z" fill="#BFE9FF"/>
<path d="M263.862 165.925C263.818 165.925 263.773 165.925 263.728 165.925L223.846 175.046C223.667 175.09 223.622 175.314 223.756 175.403L252.819 205.494C252.863 205.539 252.863 205.539 252.908 205.539C256.708 206.567 448.387 258.835 448.789 258.835C449.192 258.835 461.264 224.497 461.264 224.497L263.862 165.925Z" fill="#BFE9FF"/>
<path d="M415.39 210.904L268.065 167.176C265.919 166.55 263.684 167.758 263.102 169.904C262.521 172.005 263.684 174.151 265.785 174.777L412.797 219.265C414.764 219.847 416.865 218.863 417.625 216.985L417.938 216.27C418.833 214.079 417.625 211.575 415.39 210.904Z" fill="#E9F8FF"/>
<path d="M223.711 175.18C223.711 175.269 223.711 175.314 223.756 175.403L252.819 205.494C252.863 205.539 252.863 205.539 252.908 205.539C256.708 206.567 448.387 258.835 448.789 258.835C449.013 258.835 452.187 249.982 455.317 241.263L223.711 175.18Z" fill="#A3D3E8"/>
<path d="M463.008 205.45L459.386 204.511C455.094 203.437 450.757 206.031 449.684 210.278L436.002 264.111C434.929 268.403 437.522 272.74 441.77 273.813L445.391 274.752C449.684 275.825 454.021 273.232 455.094 268.985L468.775 215.152C469.893 210.86 467.3 206.523 463.008 205.45Z" fill="#4B8B99"/>
<path d="M467.032 207.864L448.789 274.931C451.785 274.395 454.334 272.159 455.138 269.029L468.82 215.197C469.491 212.469 468.731 209.787 467.032 207.864Z" fill="#3E7A84"/>
</g>
<path d="M31 761.786L124 679V837H0L31 761.786Z" fill="#6D5454"/>
<defs>
<clipPath id="clip0">
<rect width="1015.85" height="837" fill="white" transform="translate(123.513)"/>
</clipPath>
</defs>
</svg>
