<svg width="40" height="27" viewBox="0 0 40 27" fill="none" xmlns="http://www.w3.org/2000/svg">
<path fill-rule="evenodd" clip-rule="evenodd" d="M10.956 7.10089C11.7631 6.29712 11.7631 4.99514 10.956 4.19137L10.9289 4.16399C10.1217 3.36022 8.8141 3.36022 8.00699 4.16399L0.605335 11.5331C-0.201778 12.3369 -0.201778 13.6414 0.605335 14.4452L8.00699 21.8138C8.8141 22.6175 10.1217 22.6175 10.9289 21.8138L10.956 21.7869C11.7631 20.9831 11.7631 19.6812 10.956 18.8774L6.50538 14.4452C5.69827 13.6414 5.69827 12.3369 6.50538 11.5331L10.956 7.10089ZM39.3947 11.5331L31.993 4.16399C31.188 3.36022 29.8783 3.36022 29.0711 4.16399L29.044 4.19137C28.2369 4.99514 28.2369 6.29712 29.044 7.10089L33.4967 11.5331C34.3038 12.3369 34.3038 13.6414 33.4967 14.4452L29.044 18.8774C28.2369 19.6812 28.2369 20.9831 29.044 21.7869L29.0711 21.8138C29.8783 22.6175 31.188 22.6175 31.993 21.8138L39.3947 14.4452C40.2018 13.6414 40.2018 12.3369 39.3947 11.5331ZM26.9671 2.92473L16.3094 25.419C15.9642 26.1262 15.3584 27 14.5769 27H14.5356C13.016 27 12.0257 24.9642 12.6976 23.5915L23.2932 1.31025C23.6385 0.605152 24.9182 0.0522273 24.9182 0.0522273V0C26.9857 0 27.6369 1.55211 26.9671 2.92473Z"/>
</svg>
