<svg width="40" height="40" viewBox="0 0 40 40" fill="none" xmlns="http://www.w3.org/2000/svg">
<path d="M27.5084 23.5267C27.5081 23.307 27.4207 23.0965 27.2654 22.9412C27.1101 22.7859 26.8995 22.6985 26.6799 22.6981H11.1636C10.9441 22.6986 10.7338 22.786 10.5787 22.9414C10.4237 23.0967 10.3366 23.3072 10.3366 23.5267C10.3366 23.7462 10.4237 23.9567 10.5787 24.112C10.7338 24.2673 10.9441 24.3548 11.1636 24.3552H26.6799C26.8995 24.3549 27.1101 24.2675 27.2654 24.1122C27.4207 23.9569 27.5081 23.7463 27.5084 23.5267Z" />
<path d="M18.9659 29.2398C18.9655 29.0202 18.8781 28.8096 18.7228 28.6543C18.5675 28.499 18.3569 28.4116 18.1373 28.4113L11.1636 28.4117C10.9441 28.4121 10.7338 28.4996 10.5787 28.6549C10.4237 28.8103 10.3366 29.0208 10.3366 29.2402C10.3366 29.4597 10.4237 29.6702 10.5787 29.8255C10.7338 29.9809 10.9441 30.0684 11.1636 30.0688L18.1373 30.0684C18.357 30.068 18.5675 29.9806 18.7228 29.8253C18.8781 29.67 18.9655 29.4594 18.9659 29.2398Z" />
<path d="M10.7581 16.9811C10.8224 17.0072 10.8909 17.0318 10.9607 17.0551C11.3424 17.174 11.7409 17.2303 12.1406 17.2221C12.561 17.2349 12.9799 17.1681 13.3753 17.0249C13.6669 16.9196 13.9275 16.7431 14.1336 16.5115C14.3397 16.2798 14.4846 16.0004 14.5553 15.6985C14.6341 15.382 14.6732 15.0569 14.6716 14.7308V10.8788C14.6716 10.6703 14.5888 10.4702 14.4413 10.3228C14.2938 10.1753 14.0938 10.0924 13.8852 10.0924C13.6767 10.0924 13.4766 10.1753 13.3291 10.3228C13.1817 10.4702 13.0988 10.6703 13.0988 10.8788V14.65C13.13 14.9863 13.0402 15.3226 12.8456 15.5986C12.7357 15.7016 12.6051 15.7801 12.4626 15.8287C12.32 15.8773 12.1687 15.895 12.0188 15.8806C11.7708 15.8831 11.5246 15.8385 11.2933 15.7492C11.2837 15.7451 11.2741 15.7423 11.2646 15.7382C11.1832 15.7053 11.0963 15.6886 11.0086 15.689C10.8526 15.6884 10.7013 15.7422 10.5808 15.8412C10.4602 15.9402 10.3781 16.0782 10.3484 16.2313C10.3187 16.3845 10.3434 16.5432 10.4182 16.68C10.493 16.8169 10.6132 16.9234 10.7581 16.9811L10.7581 16.9811Z" />
<path d="M16.9001 16.2993C17.2165 16.6056 17.5946 16.8407 18.0092 16.989C18.4421 17.146 18.8993 17.2251 19.3597 17.2225C19.8288 17.2258 20.2949 17.1468 20.7367 16.989C21.1506 16.8425 21.5273 16.6071 21.8403 16.2993C22.1616 15.9751 22.4105 15.5866 22.5709 15.1592C22.758 14.6545 22.8485 14.119 22.8376 13.5807C22.8484 13.043 22.7568 12.508 22.5676 12.0045C22.4013 11.5743 22.1464 11.1839 21.8193 10.8588C21.5042 10.5498 21.1263 10.3124 20.7112 10.1626C20.2778 10.0067 19.8203 9.92838 19.3597 9.93123C18.9075 9.92942 18.4585 10.0077 18.0336 10.1626C17.619 10.314 17.241 10.5512 16.9245 10.8588C16.5943 11.1839 16.3353 11.574 16.164 12.0045C15.9663 12.506 15.8703 13.0418 15.8817 13.5807C15.8709 14.1195 15.9633 14.6553 16.154 15.1592C16.3182 15.5883 16.5726 15.9772 16.9001 16.2993ZM17.6307 12.6587C17.705 12.399 17.8282 12.1559 17.9938 11.9425C18.1494 11.7466 18.3473 11.5884 18.5727 11.4798C18.8189 11.365 19.0881 11.3079 19.3597 11.3127C19.6289 11.3082 19.8958 11.3634 20.1412 11.4743C20.3697 11.5784 20.57 11.7355 20.7256 11.9325C20.8916 12.1457 21.0149 12.3889 21.0887 12.6487C21.1767 12.9514 21.2192 13.2655 21.2149 13.5807C21.2196 13.8949 21.177 14.208 21.0887 14.5095C21.0146 14.7672 20.8913 15.0081 20.7256 15.219C20.5698 15.4164 20.3695 15.5741 20.1412 15.6795C19.8933 15.7854 19.6265 15.84 19.3569 15.84C19.0874 15.84 18.8206 15.7854 18.5727 15.6795C18.3465 15.5731 18.1483 15.4154 17.9938 15.219C17.8285 15.0079 17.7052 14.767 17.6307 14.5095C17.4639 13.9038 17.4639 13.2643 17.6307 12.6587L17.6307 12.6587Z" />
<path d="M24.1505 17.1716H26.4794C27.5343 17.1716 28.3291 16.9867 28.8637 16.617C29.1275 16.4329 29.3396 16.1841 29.4797 15.8946C29.6198 15.605 29.6833 15.2844 29.6641 14.9633C29.6703 14.6218 29.5875 14.2845 29.4238 13.9848C29.2116 13.6562 28.8902 13.4131 28.5162 13.2985C28.7593 13.1742 28.9633 12.9851 29.1055 12.752C29.2478 12.5189 29.3227 12.251 29.322 11.9779C29.3333 11.6523 29.2548 11.3299 29.0951 11.0459C28.9418 10.791 28.7247 10.5804 28.4653 10.4349C28.166 10.2702 27.84 10.1597 27.5022 10.1083C27.0972 10.0416 26.6873 10.0093 26.2769 10.012H24.1494V16.9702H24.1505L24.1505 17.1716ZM25.6824 11.3127C25.8031 11.2994 25.9415 11.2905 26.0964 11.2883C26.2503 11.2839 26.3942 11.2828 26.5303 11.2828C26.8548 11.2652 27.1788 11.3235 27.4768 11.4532C27.5829 11.5101 27.6701 11.5968 27.7275 11.7026C27.785 11.8084 27.8102 11.9288 27.8 12.0488C27.8082 12.1679 27.7832 12.287 27.728 12.3929C27.6727 12.4988 27.5892 12.5873 27.4867 12.6487C27.1621 12.7968 26.8054 12.8608 26.4495 12.8347H25.6824L25.6824 11.3127ZM25.6824 14.0357H26.6709C27.0285 14.0157 27.3853 14.0865 27.7081 14.2416C27.8279 14.3108 27.9257 14.4124 27.9902 14.5349C28.0546 14.6573 28.0831 14.7955 28.0723 14.9334C28.0857 15.0873 28.0511 15.2416 27.9735 15.3752C27.8958 15.5087 27.7788 15.615 27.6384 15.6795C27.2771 15.8273 26.8883 15.896 26.4982 15.8809C26.3377 15.8809 26.1894 15.8776 26.0555 15.871C25.9204 15.8643 25.7965 15.8533 25.6824 15.84L25.6824 14.0357Z" />
<path d="M4.69163 39.1726H35.3084C35.5059 39.1727 35.7014 39.1338 35.8838 39.0583C36.0662 38.9827 36.232 38.872 36.3716 38.7324C36.5112 38.5927 36.622 38.427 36.6975 38.2446C36.773 38.0621 36.8119 37.8666 36.8119 37.6692V2.33083C36.8119 2.13338 36.773 1.93786 36.6975 1.75544C36.622 1.57301 36.5112 1.40726 36.3716 1.26764C36.232 1.12802 36.0662 1.01728 35.8838 0.941735C35.7014 0.866191 35.5059 0.827329 35.3084 0.827366H4.69163C4.49418 0.827329 4.29866 0.866191 4.11623 0.941735C3.93381 1.01728 3.76805 1.12802 3.62844 1.26764C3.48882 1.40726 3.37808 1.57301 3.30254 1.75544C3.22699 1.93786 3.18813 2.13338 3.18817 2.33083V37.6692C3.18813 37.8666 3.227 38.0621 3.30254 38.2446C3.37808 38.427 3.48882 38.5927 3.62844 38.7324C3.76806 38.872 3.93381 38.9827 4.11624 39.0583C4.29866 39.1338 4.49418 39.1727 4.69163 39.1726ZM6.1965 3.83288H33.8035V36.1671H6.1965V3.83288Z"/>
</svg>
