<svg width="20" height="20" viewBox="0 0 20 20" fill="none" xmlns="http://www.w3.org/2000/svg">
<path d="M7.46734 11.2446L6.84506 11.2433V11.2446H7.46734Z" fill="#14110F"/>
<path d="M13.0678 11.2446H13.6901L13.0678 11.2433V11.2446Z" fill="#14110F"/>
<path d="M20 9.37777C20 8.00502 18.8836 6.88865 17.5109 6.88865C16.962 6.88865 16.4406 7.06787 16.0149 7.3927C14.626 6.42817 12.8065 5.85318 10.8712 5.70757L11.9154 3.25829L14.9533 3.96768C15.0504 4.90732 15.837 5.6441 16.8015 5.6441C17.8307 5.6441 18.6683 4.80651 18.6683 3.77727C18.6683 2.74802 17.8307 1.91043 16.8015 1.91043C16.1493 1.91043 15.5756 2.24771 15.2421 2.75673L11.6914 1.92661C11.3902 1.85816 11.0952 2.01124 10.9757 2.28878L9.53205 5.67397C7.44244 5.74615 5.45115 6.33483 3.94773 7.36034C3.53827 7.05667 3.03049 6.88865 2.48911 6.88865C1.11637 6.88865 0 8.00502 0 9.37777C0 10.2875 0.496578 11.1102 1.25825 11.5321C1.24829 11.6416 1.24456 11.7536 1.24456 11.8669C1.24456 15.2981 5.15246 18.0897 9.95644 18.0897C14.7592 18.0897 18.6683 15.2981 18.6683 11.8669C18.6683 11.7698 18.6646 11.674 18.6584 11.5781C19.4698 11.1649 20 10.3224 20 9.37777Z" fill="white"/>
<path d="M16.8015 4.39955C17.1452 4.39955 17.4238 4.12095 17.4238 3.77728C17.4238 3.4336 17.1452 3.155 16.8015 3.155C16.4578 3.155 16.1792 3.4336 16.1792 3.77728C16.1792 4.12095 16.4578 4.39955 16.8015 4.39955Z" fill="#14110F"/>
<path d="M6.84505 12.4892C7.5324 12.4892 8.0896 11.932 8.0896 11.2446C8.0896 10.5573 7.5324 10.0001 6.84505 10.0001C6.1577 10.0001 5.60049 10.5573 5.60049 11.2446C5.60049 11.932 6.1577 12.4892 6.84505 12.4892Z" fill="#14110F"/>
<path d="M12.8302 15.3728C11.9714 15.9938 10.9633 16.305 9.95647 16.305C8.94963 16.305 7.94154 15.9938 7.0828 15.3728C6.80402 15.1712 6.74179 14.7816 6.94341 14.5041C7.14502 14.2266 7.53457 14.1643 7.81211 14.3647C9.09524 15.2919 10.8177 15.2944 12.1008 14.3647C12.3784 14.1643 12.7667 14.2241 12.9695 14.5041C13.1712 14.7829 13.1077 15.1712 12.8302 15.3728Z" fill="#14110F"/>
<path d="M13.0678 12.4892C13.7552 12.4892 14.3124 11.932 14.3124 11.2446C14.3124 10.5573 13.7552 10.0001 13.0678 10.0001C12.3805 10.0001 11.8233 10.5573 11.8233 11.2446C11.8233 11.932 12.3805 12.4892 13.0678 12.4892Z" fill="#14110F"/>
</svg>
