<svg width="35" height="35" viewBox="0 0 35 35" fill="none" xmlns="http://www.w3.org/2000/svg">
<g clip-path="url(#clip0)">
<path d="M33.5046 0.115523L0.566847 16.6528C0.234484 16.8196 0.0185362 17.1533 0.00254014 17.5248C-0.013456 17.8963 0.172823 18.2474 0.489601 18.4423L8.20437 23.1898V33.9746C8.20437 34.4159 8.48662 34.8076 8.90519 34.9472C9.32382 35.0869 9.78463 34.9431 10.0496 34.5903L15.3222 27.57L27.1486 34.8478C27.4356 35.0245 27.7912 35.0488 28.0996 34.9128C28.4081 34.7768 28.6299 34.4979 28.6932 34.1668L34.9811 1.2237C34.9832 1.21276 34.9852 1.20182 34.987 1.19082C35.1214 0.360455 34.2503 -0.268657 33.5046 0.115523ZM9.17596 21.3799L3.13101 17.66L27.2559 5.5475L9.17596 21.3799ZM10.2549 30.902V23.1608L27.2386 8.2885C26.8655 8.78513 10.6991 30.3105 10.2549 30.902ZM26.9573 32.3224L16.5588 25.9232L32.1382 5.17952L26.9573 32.3224Z" fill="#14110F"/>
</g>
<defs>
<clipPath id="clip0">
<rect width="35" height="35" fill="white"/>
</clipPath>
</defs>
</svg>
